<mxfile host="app.diagrams.net" modified="2021-07-14T14:07:51.832Z" agent="5.0 (Windows NT 10.0; WOW64) AppleWebKit/537.36 (KHTML, like Gecko) Chrome/91.0.4472.114 Safari/537.36" etag="xPwIp-haEJCowIb37ynw" version="14.8.6" type="github">
  <diagram id="4_BCtRtNaMnRbEcq8JJH" name="Page-1">
    <mxGraphModel dx="898" dy="490" grid="0" gridSize="10" guides="1" tooltips="1" connect="1" arrows="1" fold="1" page="1" pageScale="1" pageWidth="827" pageHeight="1169" background="none" math="0" shadow="0">
      <root>
        <mxCell id="0" />
        <mxCell id="1" parent="0" />
        <mxCell id="9JfLr56fLFELNTdt5D4B-2" value="" style="rounded=1;whiteSpace=wrap;html=1;dashed=1;strokeWidth=1;perimeterSpacing=1;" parent="1" vertex="1">
          <mxGeometry x="33" y="86" width="501" height="113" as="geometry" />
        </mxCell>
        <mxCell id="9JfLr56fLFELNTdt5D4B-1" value="&lt;p&gt;&lt;font face=&quot;Verdana&quot; style=&quot;line-height: 200%&quot;&gt;&lt;font style=&quot;font-size: 14px&quot;&gt;&lt;font&gt;c1: Mike said,&lt;br&gt;&lt;/font&gt;&lt;font&gt;c2: I am so happy, (&lt;font color=&quot;#97d077&quot;&gt;Emotion&lt;/font&gt;)&lt;br&gt;&lt;/font&gt;&lt;font&gt;c3: because I have my own family now, (&lt;font color=&quot;#ff3333&quot;&gt;Cause&lt;/font&gt;)&lt;br&gt;&lt;/font&gt;&lt;font&gt;c4: I thank all the people who have helped me. (&lt;font color=&quot;#97d077&quot;&gt;Emotion&lt;/font&gt;,&lt;font color=&quot;#ea6b66&quot;&gt; &lt;/font&gt;&lt;font color=&quot;#ff3333&quot;&gt;Cause&lt;/font&gt;)&lt;/font&gt;&lt;/font&gt;&lt;br&gt;&lt;/font&gt;&lt;/p&gt;" style="text;html=1;strokeColor=none;fillColor=none;align=left;verticalAlign=middle;whiteSpace=wrap;rounded=0;strokeWidth=9;perimeterSpacing=1;" parent="1" vertex="1">
          <mxGeometry x="48" y="89" width="488" height="105" as="geometry" />
        </mxCell>
        <mxCell id="9JfLr56fLFELNTdt5D4B-5" value="&lt;font style=&quot;font-size: 18px&quot;&gt;Input: a emotion document&lt;/font&gt;" style="text;html=1;strokeColor=none;fillColor=none;align=center;verticalAlign=middle;whiteSpace=wrap;rounded=0;dashed=1;" parent="1" vertex="1">
          <mxGeometry x="162" y="58" width="243" height="28" as="geometry" />
        </mxCell>
        <mxCell id="9JfLr56fLFELNTdt5D4B-7" value="&lt;font style=&quot;font-size: 18px&quot;&gt;Output: emotion-cause pairs&lt;/font&gt;" style="text;html=1;strokeColor=none;fillColor=none;align=center;verticalAlign=middle;whiteSpace=wrap;rounded=0;dashed=1;" parent="1" vertex="1">
          <mxGeometry x="567" y="58" width="238" height="28" as="geometry" />
        </mxCell>
        <mxCell id="9JfLr56fLFELNTdt5D4B-13" value="&lt;font style=&quot;font-size: 14px&quot;&gt;{ (&lt;font color=&quot;#97d077&quot;&gt;c2&lt;/font&gt;, &lt;font color=&quot;#ff3333&quot;&gt;c3&lt;/font&gt;), (&lt;font color=&quot;#97d077&quot;&gt;c4&lt;/font&gt;, &lt;font color=&quot;#ff3333&quot;&gt;c4&lt;/font&gt;) }&lt;/font&gt;" style="rounded=0;whiteSpace=wrap;html=1;dashed=1;strokeWidth=1;" parent="1" vertex="1">
          <mxGeometry x="603" y="115" width="166" height="53" as="geometry" />
        </mxCell>
        <mxCell id="9JfLr56fLFELNTdt5D4B-15" value="" style="endArrow=classic;html=1;shape=flexArrow;" parent="1" edge="1">
          <mxGeometry width="50" height="50" relative="1" as="geometry">
            <mxPoint x="546" y="141" as="sourcePoint" />
            <mxPoint x="590" y="141" as="targetPoint" />
          </mxGeometry>
        </mxCell>
        <mxCell id="tjy2EWPSMk6jfCMkUfoy-2" value="" style="shape=table;startSize=0;container=1;collapsible=0;childLayout=tableLayout;strokeColor=#CCCCCC;" parent="1" vertex="1">
          <mxGeometry x="84" y="316" width="241" height="199" as="geometry" />
        </mxCell>
        <mxCell id="tjy2EWPSMk6jfCMkUfoy-3" value="" style="shape=partialRectangle;collapsible=0;dropTarget=0;pointerEvents=0;fillColor=none;top=0;left=0;bottom=0;right=0;points=[[0,0.5],[1,0.5]];portConstraint=eastwest;" parent="tjy2EWPSMk6jfCMkUfoy-2" vertex="1">
          <mxGeometry width="241" height="49" as="geometry" />
        </mxCell>
        <mxCell id="tjy2EWPSMk6jfCMkUfoy-4" value="&lt;font style=&quot;font-size: 14px&quot;&gt;(c1, c1)&lt;/font&gt;" style="shape=partialRectangle;html=1;whiteSpace=wrap;connectable=0;overflow=hidden;fillColor=none;top=0;left=0;bottom=0;right=0;" parent="tjy2EWPSMk6jfCMkUfoy-3" vertex="1">
          <mxGeometry width="62" height="49" as="geometry" />
        </mxCell>
        <mxCell id="tjy2EWPSMk6jfCMkUfoy-5" value="&lt;font style=&quot;font-size: 14px&quot;&gt;(c1, c2)&lt;/font&gt;" style="shape=partialRectangle;html=1;whiteSpace=wrap;connectable=0;overflow=hidden;fillColor=none;top=0;left=0;bottom=0;right=0;" parent="tjy2EWPSMk6jfCMkUfoy-3" vertex="1">
          <mxGeometry x="62" width="61" height="49" as="geometry" />
        </mxCell>
        <mxCell id="tjy2EWPSMk6jfCMkUfoy-6" value="&lt;span&gt;&lt;font style=&quot;font-size: 14px&quot;&gt;(c1, c3)&lt;/font&gt;&lt;/span&gt;" style="shape=partialRectangle;html=1;whiteSpace=wrap;connectable=0;overflow=hidden;fillColor=none;top=0;left=0;bottom=0;right=0;" parent="tjy2EWPSMk6jfCMkUfoy-3" vertex="1">
          <mxGeometry x="123" width="61" height="49" as="geometry" />
        </mxCell>
        <mxCell id="tjy2EWPSMk6jfCMkUfoy-7" value="&lt;span&gt;&lt;font style=&quot;font-size: 14px&quot;&gt;(c1, c4)&lt;/font&gt;&lt;/span&gt;" style="shape=partialRectangle;html=1;whiteSpace=wrap;connectable=0;overflow=hidden;fillColor=none;top=0;left=0;bottom=0;right=0;" parent="tjy2EWPSMk6jfCMkUfoy-3" vertex="1">
          <mxGeometry x="184" width="57" height="49" as="geometry" />
        </mxCell>
        <mxCell id="tjy2EWPSMk6jfCMkUfoy-8" value="" style="shape=partialRectangle;collapsible=0;dropTarget=0;pointerEvents=0;fillColor=none;top=0;left=0;bottom=0;right=0;points=[[0,0.5],[1,0.5]];portConstraint=eastwest;" parent="tjy2EWPSMk6jfCMkUfoy-2" vertex="1">
          <mxGeometry y="49" width="241" height="51" as="geometry" />
        </mxCell>
        <mxCell id="tjy2EWPSMk6jfCMkUfoy-9" value="&lt;font style=&quot;font-size: 14px&quot;&gt;(c2, c1)&lt;/font&gt;" style="shape=partialRectangle;html=1;whiteSpace=wrap;connectable=0;overflow=hidden;fillColor=none;top=0;left=0;bottom=0;right=0;" parent="tjy2EWPSMk6jfCMkUfoy-8" vertex="1">
          <mxGeometry width="62" height="51" as="geometry" />
        </mxCell>
        <mxCell id="tjy2EWPSMk6jfCMkUfoy-10" value="&lt;span style=&quot;font-size: 14px&quot;&gt;(c2, c2)&lt;/span&gt;" style="shape=partialRectangle;html=1;whiteSpace=wrap;connectable=0;overflow=hidden;fillColor=none;top=0;left=0;bottom=0;right=0;" parent="tjy2EWPSMk6jfCMkUfoy-8" vertex="1">
          <mxGeometry x="62" width="61" height="51" as="geometry" />
        </mxCell>
        <mxCell id="tjy2EWPSMk6jfCMkUfoy-11" value="&lt;span style=&quot;font-size: 14px&quot;&gt;&lt;b&gt;(c2, c3)&lt;/b&gt;&lt;/span&gt;" style="shape=partialRectangle;html=1;whiteSpace=wrap;connectable=0;overflow=hidden;fillColor=none;top=0;left=0;bottom=0;right=0;" parent="tjy2EWPSMk6jfCMkUfoy-8" vertex="1">
          <mxGeometry x="123" width="61" height="51" as="geometry" />
        </mxCell>
        <mxCell id="tjy2EWPSMk6jfCMkUfoy-12" value="&lt;span style=&quot;font-size: 14px&quot;&gt;(c2, c4)&lt;/span&gt;" style="shape=partialRectangle;html=1;whiteSpace=wrap;connectable=0;overflow=hidden;fillColor=none;top=0;left=0;bottom=0;right=0;" parent="tjy2EWPSMk6jfCMkUfoy-8" vertex="1">
          <mxGeometry x="184" width="57" height="51" as="geometry" />
        </mxCell>
        <mxCell id="tjy2EWPSMk6jfCMkUfoy-13" value="" style="shape=partialRectangle;collapsible=0;dropTarget=0;pointerEvents=0;fillColor=none;top=0;left=0;bottom=0;right=0;points=[[0,0.5],[1,0.5]];portConstraint=eastwest;" parent="tjy2EWPSMk6jfCMkUfoy-2" vertex="1">
          <mxGeometry y="100" width="241" height="50" as="geometry" />
        </mxCell>
        <mxCell id="tjy2EWPSMk6jfCMkUfoy-14" value="&lt;span style=&quot;font-size: 14px&quot;&gt;(c3, c1)&lt;/span&gt;" style="shape=partialRectangle;html=1;whiteSpace=wrap;connectable=0;overflow=hidden;fillColor=none;top=0;left=0;bottom=0;right=0;" parent="tjy2EWPSMk6jfCMkUfoy-13" vertex="1">
          <mxGeometry width="62" height="50" as="geometry" />
        </mxCell>
        <mxCell id="tjy2EWPSMk6jfCMkUfoy-15" value="&lt;span style=&quot;font-size: 14px&quot;&gt;(c3, c2)&lt;/span&gt;" style="shape=partialRectangle;html=1;whiteSpace=wrap;connectable=0;overflow=hidden;fillColor=none;top=0;left=0;bottom=0;right=0;" parent="tjy2EWPSMk6jfCMkUfoy-13" vertex="1">
          <mxGeometry x="62" width="61" height="50" as="geometry" />
        </mxCell>
        <mxCell id="tjy2EWPSMk6jfCMkUfoy-16" value="&lt;span style=&quot;font-size: 14px&quot;&gt;(c3, c3)&lt;/span&gt;" style="shape=partialRectangle;html=1;whiteSpace=wrap;connectable=0;overflow=hidden;fillColor=none;top=0;left=0;bottom=0;right=0;" parent="tjy2EWPSMk6jfCMkUfoy-13" vertex="1">
          <mxGeometry x="123" width="61" height="50" as="geometry" />
        </mxCell>
        <mxCell id="tjy2EWPSMk6jfCMkUfoy-17" value="&lt;span style=&quot;font-size: 14px&quot;&gt;(c3, c3)&lt;/span&gt;" style="shape=partialRectangle;html=1;whiteSpace=wrap;connectable=0;overflow=hidden;fillColor=none;top=0;left=0;bottom=0;right=0;" parent="tjy2EWPSMk6jfCMkUfoy-13" vertex="1">
          <mxGeometry x="184" width="57" height="50" as="geometry" />
        </mxCell>
        <mxCell id="tjy2EWPSMk6jfCMkUfoy-18" value="" style="shape=partialRectangle;collapsible=0;dropTarget=0;pointerEvents=0;fillColor=none;top=0;left=0;bottom=0;right=0;points=[[0,0.5],[1,0.5]];portConstraint=eastwest;" parent="tjy2EWPSMk6jfCMkUfoy-2" vertex="1">
          <mxGeometry y="150" width="241" height="49" as="geometry" />
        </mxCell>
        <mxCell id="tjy2EWPSMk6jfCMkUfoy-19" value="&lt;span style=&quot;font-size: 14px&quot;&gt;(c4, c1)&lt;/span&gt;" style="shape=partialRectangle;html=1;whiteSpace=wrap;connectable=0;overflow=hidden;fillColor=none;top=0;left=0;bottom=0;right=0;" parent="tjy2EWPSMk6jfCMkUfoy-18" vertex="1">
          <mxGeometry width="62" height="49" as="geometry" />
        </mxCell>
        <mxCell id="tjy2EWPSMk6jfCMkUfoy-20" value="&lt;span style=&quot;font-size: 14px&quot;&gt;(c4, c2)&lt;/span&gt;" style="shape=partialRectangle;html=1;whiteSpace=wrap;connectable=0;overflow=hidden;fillColor=none;top=0;left=0;bottom=0;right=0;" parent="tjy2EWPSMk6jfCMkUfoy-18" vertex="1">
          <mxGeometry x="62" width="61" height="49" as="geometry" />
        </mxCell>
        <mxCell id="tjy2EWPSMk6jfCMkUfoy-21" value="&lt;span style=&quot;font-size: 14px&quot;&gt;(c4, c3)&lt;/span&gt;" style="shape=partialRectangle;html=1;whiteSpace=wrap;connectable=0;overflow=hidden;fillColor=none;top=0;left=0;bottom=0;right=0;" parent="tjy2EWPSMk6jfCMkUfoy-18" vertex="1">
          <mxGeometry x="123" width="61" height="49" as="geometry" />
        </mxCell>
        <mxCell id="tjy2EWPSMk6jfCMkUfoy-22" value="&lt;span style=&quot;font-size: 14px&quot;&gt;&lt;b&gt;(c4, c4)&lt;/b&gt;&lt;/span&gt;" style="shape=partialRectangle;html=1;whiteSpace=wrap;connectable=0;overflow=hidden;fillColor=none;top=0;left=0;bottom=0;right=0;" parent="tjy2EWPSMk6jfCMkUfoy-18" vertex="1">
          <mxGeometry x="184" width="57" height="49" as="geometry" />
        </mxCell>
        <mxCell id="tjy2EWPSMk6jfCMkUfoy-28" value="" style="endArrow=classic;html=1;shape=flexArrow;" parent="1" edge="1">
          <mxGeometry width="50" height="50" relative="1" as="geometry">
            <mxPoint x="340" y="415" as="sourcePoint" />
            <mxPoint x="382" y="415" as="targetPoint" />
          </mxGeometry>
        </mxCell>
        <mxCell id="tjy2EWPSMk6jfCMkUfoy-29" value="&lt;font style=&quot;font-size: 14px&quot;&gt;{ (c2, c3), (c4, c4) }&lt;/font&gt;" style="rounded=0;whiteSpace=wrap;html=1;strokeWidth=1;strokeColor=#CCCCCC;" parent="1" vertex="1">
          <mxGeometry x="393" y="393" width="123" height="50" as="geometry" />
        </mxCell>
        <mxCell id="tjy2EWPSMk6jfCMkUfoy-30" value="&lt;font style=&quot;font-size: 14px&quot;&gt;{c2, c4}&lt;/font&gt;" style="rounded=0;whiteSpace=wrap;html=1;strokeWidth=1;strokeColor=#CCCCCC;" parent="1" vertex="1">
          <mxGeometry x="580" y="316" width="123" height="50" as="geometry" />
        </mxCell>
        <mxCell id="tjy2EWPSMk6jfCMkUfoy-31" value="&lt;font style=&quot;font-size: 14px&quot;&gt;Emotion set&lt;/font&gt;" style="text;html=1;strokeColor=none;fillColor=none;align=center;verticalAlign=middle;whiteSpace=wrap;rounded=0;" parent="1" vertex="1">
          <mxGeometry x="603.5" y="291" width="76" height="20" as="geometry" />
        </mxCell>
        <mxCell id="tjy2EWPSMk6jfCMkUfoy-33" value="&lt;font style=&quot;font-size: 14px&quot;&gt;Candidate emotion-cause pairs&lt;/font&gt;" style="text;html=1;strokeColor=none;fillColor=none;align=center;verticalAlign=middle;whiteSpace=wrap;rounded=0;rotation=0;" parent="1" vertex="1">
          <mxGeometry x="98" y="291" width="213" height="20" as="geometry" />
        </mxCell>
        <mxCell id="tjy2EWPSMk6jfCMkUfoy-34" value="" style="endArrow=classic;html=1;shape=flexArrow;" parent="1" edge="1">
          <mxGeometry width="50" height="50" relative="1" as="geometry">
            <mxPoint x="641" y="383" as="sourcePoint" />
            <mxPoint x="641" y="420" as="targetPoint" />
          </mxGeometry>
        </mxCell>
        <mxCell id="tjy2EWPSMk6jfCMkUfoy-35" value="&lt;font style=&quot;font-size: 14px&quot;&gt;{ (c2, c3), (c4, c4) }&lt;/font&gt;" style="rounded=0;whiteSpace=wrap;html=1;strokeWidth=1;strokeColor=#CCCCCC;" parent="1" vertex="1">
          <mxGeometry x="580" y="429" width="123" height="50" as="geometry" />
        </mxCell>
      </root>
    </mxGraphModel>
  </diagram>
</mxfile>
